<?xml version="1.0" encoding="UTF-8" standalone="no"?>
<svg
   xmlns:osb="http://www.openswatchbook.org/uri/2009/osb"
   xmlns:dc="http://purl.org/dc/elements/1.1/"
   xmlns:cc="http://creativecommons.org/ns#"
   xmlns:rdf="http://www.w3.org/1999/02/22-rdf-syntax-ns#"
   xmlns:svg="http://www.w3.org/2000/svg"
   xmlns="http://www.w3.org/2000/svg"
   xmlns:xlink="http://www.w3.org/1999/xlink"
   xmlns:sodipodi="http://sodipodi.sourceforge.net/DTD/sodipodi-0.dtd"
   xmlns:inkscape="http://www.inkscape.org/namespaces/inkscape"
   width="210mm"
   height="297mm"
   viewBox="0 0 210 297"
   version="1.1"
   id="svg8"
   inkscape:version="1.0.1 (3bc2e813f5, 2020-09-07, custom)"
   sodipodi:docname="logo.svg"
   inkscape:export-filename="/home/toerd/.dotfiles/scripts/rofi_pass/pw.png"
   inkscape:export-xdpi="29.895355"
   inkscape:export-ydpi="29.895355">
  <defs
     id="defs2">
    <linearGradient
       id="linearGradient2838"
       osb:paint="solid">
      <stop
         style="stop-color:#553f89;stop-opacity:1;"
         offset="0"
         id="stop2836" />
    </linearGradient>
    <linearGradient
       id="linearGradient890"
       osb:paint="solid"
       gradientTransform="matrix(0.9374072,0,0,0.9374072,6.2012274,8.5918572)">
      <stop
         style="stop-color:#7f5abf;stop-opacity:1;"
         offset="0"
         id="stop888" />
    </linearGradient>
    <linearGradient
       id="linearGradient884"
       osb:paint="solid"
       gradientTransform="matrix(1.1381455,0,0,1.1381455,-13.08023,-19.419733)">
      <stop
         style="stop-color:#f6f6f6;stop-opacity:1;"
         offset="0"
         id="stop882" />
    </linearGradient>
    <linearGradient
       inkscape:collect="always"
       xlink:href="#linearGradient884"
       id="linearGradient2877"
       gradientUnits="userSpaceOnUse"
       gradientTransform="matrix(0.9374072,0,0,0.9374072,6.2012274,8.5918572)" />
  </defs>
  <sodipodi:namedview
     id="base"
     pagecolor="#ffffff"
     bordercolor="#666666"
     borderopacity="1.0"
     inkscape:pageopacity="0.0"
     inkscape:pageshadow="2"
     inkscape:zoom="1.979899"
     inkscape:cx="271.82439"
     inkscape:cy="580.84517"
     inkscape:document-units="mm"
     inkscape:current-layer="layer1"
     inkscape:document-rotation="0"
     showgrid="false"
     inkscape:window-width="950"
     inkscape:window-height="1038"
     inkscape:window-x="962"
     inkscape:window-y="34"
     inkscape:window-maximized="1"
     inkscape:snap-global="false" />
  <metadata
     id="metadata5">
    <rdf:RDF>
      <cc:Work
         rdf:about="">
        <dc:format>image/svg+xml</dc:format>
        <dc:type
           rdf:resource="http://purl.org/dc/dcmitype/StillImage" />
        <dc:title />
      </cc:Work>
    </rdf:RDF>
  </metadata>
  <g
     inkscape:label="Layer 1"
     inkscape:groupmode="layer"
     id="layer1">
    <rect
       style="fill:#813d9c;stroke-width:0.361684;stroke-linecap:round"
       id="rect833"
       width="35.684479"
       height="22.037418"
       x="25.130997"
       y="132.99036"
       ry="1.925615"
       inkscape:export-xdpi="29.895355"
       inkscape:export-ydpi="29.895355" />
    <path
       id="path850"
       style="fill:#813d9c;stroke-width:0.542833;stroke-linecap:round"
       d="m 42.93443,114.03658 c -7.378833,0.0215 -13.349272,6.00909 -13.349505,13.38795 1.88e-4,0.0211 4.27e-4,13.95874 7.15e-4,13.97987 l 5.332679,-0.13544 c 0,0 -5.57e-4,-13.19653 -7.11e-4,-13.21763 3.05e-4,-4.44895 3.607028,-8.68215 8.05598,-8.68206 4.448674,3e-4 8.054957,3.60659 8.055267,8.05526 -1.6e-4,0.0211 -7.2e-4,9.60601 -7.2e-4,13.8922 l 5.33339,-0.10241 c 0,0 5e-5,-13.76869 0,-13.78979 -2.7e-4,-7.39385 -5.99409,-13.38768 -13.387937,-13.38795 -0.01305,-2e-5 -0.02611,-2e-5 -0.03916,0 z"
       sodipodi:nodetypes="scccccccccsss"
       inkscape:export-xdpi="29.895355"
       inkscape:export-ydpi="29.895355" />
    <g
       id="g2882"
       inkscape:export-xdpi="19.950354"
       inkscape:export-ydpi="19.950354">
      <circle
         style="fill:url(#linearGradient890);fill-opacity:1;stroke:url(#linearGradient2877);stroke-width:1.946;stroke-linecap:round;stroke-opacity:1;stroke-miterlimit:4;stroke-dasharray:none"
         id="circle2875"
         cx="99.072533"
         cy="137.2659"
         r="29.582848" />
      <path
         style="fill:url(#linearGradient884);fill-opacity:1;stroke-width:0.420334;stroke-linecap:round"
         d="m 90.744378,118.93911 c 3.125273,-0.66562 6.800875,-1.22349 10.073502,-0.47154 3.27262,0.75194 4.83679,2.87575 4.64773,5.34779 -0.18907,2.47203 -2.24238,3.28386 -4.31138,3.28549 -5.055035,-0.52968 -12.733172,-2.06958 -13.559972,-0.13203 -0.917663,1.93016 6.880216,6.58988 11.9729,10.79129 -3.80279,0.16544 -17.229568,-0.31783 -18.028118,4.2347 -0.0029,4.16431 21.21025,6.38172 21.50266,10.09125 -0.96678,3.86662 -17.411236,2.49887 -25.11183,0.71181 5.654891,-0.34676 17.083927,0.0165 16.964676,-1.0403 -0.127726,-0.47325 -23.260654,-5.0448 -22.211094,-11.80665 1.439778,-5.86181 11.670166,-6.99044 17.841754,-5.27584 -3.770432,-2.45838 -12.083242,-8.76147 -10.057528,-11.92865 2.370942,-4.02449 13.6281,1.81021 19.291436,-0.57721 -0.738178,-2.11573 -5.656817,-2.28265 -9.014736,-3.23011 z"
         id="path874"
         sodipodi:nodetypes="czzcccccccccccc" />
      <path
         style="fill:url(#linearGradient884);fill-opacity:1;stroke-width:0.335759;stroke-linecap:round"
         d="m 112.79086,126.05118 c 2.48285,-0.39825 5.39238,-0.68425 7.92458,0.0733 2.53218,0.75758 3.66001,2.55001 3.39615,4.54545 -0.26384,1.99542 -3.95736,1.94106 -7.06241,1.89917 -6.80634,0.70256 -9.48432,3.33595 -9.95061,5.71525 -0.69967,6.82501 3.77036,7.93136 9.41311,10.46787 1.60294,0.72054 5.0696,1.86103 4.76255,2.90052 -0.89474,3.06906 -9.07136,2.20597 -15.02886,0.40899 3.84247,0.0441 7.85962,-0.0967 7.80793,-1.20151 -0.10381,-1.1846 -15.889469,-2.70631 -12.51252,-15.19978 2.1463,-6.52405 14.98302,-5.22753 15.67784,-6.38461 0.54563,-1.13722 -1.35253,-2.16975 -4.42777,-3.22472 z"
         id="path876"
         sodipodi:nodetypes="czzccsccccccc" />
    </g>
  </g>
</svg>
