<?xml version="1.0" encoding="UTF-8" standalone="no"?>
<svg
   xmlns:dc="http://purl.org/dc/elements/1.1/"
   xmlns:cc="http://creativecommons.org/ns#"
   xmlns:rdf="http://www.w3.org/1999/02/22-rdf-syntax-ns#"
   xmlns:svg="http://www.w3.org/2000/svg"
   xmlns="http://www.w3.org/2000/svg"
   xmlns:sodipodi="http://sodipodi.sourceforge.net/DTD/sodipodi-0.dtd"
   xmlns:inkscape="http://www.inkscape.org/namespaces/inkscape"
   width="210mm"
   height="297mm"
   viewBox="0 0 210 297"
   version="1.1"
   id="svg8"
   inkscape:version="1.0.1 (3bc2e813f5, 2020-09-07)"
   sodipodi:docname="logo.svg"
   inkscape:export-filename="/home/toerd/.dotfiles/scripts/rofi_pass/pw.png"
   inkscape:export-xdpi="29.895355"
   inkscape:export-ydpi="29.895355">
  <defs
     id="defs2" />
  <sodipodi:namedview
     id="base"
     pagecolor="#ffffff"
     bordercolor="#666666"
     borderopacity="1.0"
     inkscape:pageopacity="0.0"
     inkscape:pageshadow="2"
     inkscape:zoom="0.98994949"
     inkscape:cx="275.82091"
     inkscape:cy="586.35229"
     inkscape:document-units="mm"
     inkscape:current-layer="layer1"
     inkscape:document-rotation="0"
     showgrid="false"
     inkscape:window-width="1908"
     inkscape:window-height="1038"
     inkscape:window-x="4"
     inkscape:window-y="34"
     inkscape:window-maximized="1" />
  <metadata
     id="metadata5">
    <rdf:RDF>
      <cc:Work
         rdf:about="">
        <dc:format>image/svg+xml</dc:format>
        <dc:type
           rdf:resource="http://purl.org/dc/dcmitype/StillImage" />
        <dc:title />
      </cc:Work>
    </rdf:RDF>
  </metadata>
  <g
     inkscape:label="Layer 1"
     inkscape:groupmode="layer"
     id="layer1">
    <rect
       style="fill:#813d9c;stroke-width:0.361684;stroke-linecap:round"
       id="rect833"
       width="35.684479"
       height="22.037418"
       x="76.998642"
       y="132.99036"
       ry="1.925615"
       inkscape:export-xdpi="29.895355"
       inkscape:export-ydpi="29.895355" />
    <path
       id="path850"
       style="fill:#813d9c;stroke-width:0.542833;stroke-linecap:round"
       d="m 94.802075,114.03658 c -7.378833,0.0215 -13.349272,6.00909 -13.349505,13.38795 1.88e-4,0.0211 4.27e-4,13.95874 7.15e-4,13.97987 l 5.332679,-0.13544 c 0,0 -5.57e-4,-13.19653 -7.11e-4,-13.21763 3.05e-4,-4.44895 3.607028,-8.68215 8.05598,-8.68206 4.448674,3e-4 8.054957,3.60659 8.055267,8.05526 -1.6e-4,0.0211 -7.2e-4,9.60601 -7.2e-4,13.8922 l 5.33339,-0.10241 c 0,0 5e-5,-13.76869 0,-13.78979 -2.7e-4,-7.39385 -5.99409,-13.38768 -13.387937,-13.38795 -0.01305,-2e-5 -0.02611,-2e-5 -0.03916,0 z"
       sodipodi:nodetypes="scccccccccsss"
       inkscape:export-xdpi="29.895355"
       inkscape:export-ydpi="29.895355" />
  </g>
</svg>
